<?xml version="1.0" encoding="UTF-8"?>
<svg width="100px" height="100px" viewBox="0 0 100 100" version="1.1" xmlns="http://www.w3.org/2000/svg" xmlns:xlink="http://www.w3.org/1999/xlink">
    <title>favicon copy</title>
    <g id="favicon-copy" stroke="none" stroke-width="1" fill="none" fill-rule="evenodd">
        <path d="M55.3344482,61.7723046 C59.4495939,64.3156572 63.5508839,66.1955265 67.9847109,66.1955265 C71.6841854,66.1955265 74.3167702,64.8823825 76.0348782,62.8366424 C76.7692308,61.9381754 77.1849021,61.5234984 77.7668419,61.5234984 C78.667463,61.5234984 79,62.1040462 79,63.0025132 C79,66.4443327 74.8155757,78 66.5160057,78 C60.9321548,78 55.7501194,73.3279719 51.3994267,68.5730083 C48.0324892,74.3093742 42.4486383,78 35.1328237,78 C26.3344482,78 21,73.5767781 21,65.9467203 C21,58.3995979 27.6507406,53.5755215 34.5647396,53.5755215 C38.5967511,53.5755215 42.6980411,54.8057301 46.1481128,56.5197286 C46.7993311,54.9577783 47.1318681,53.7275697 47.6306737,51.764765 C38.0979455,50.2028148 27.248925,44.8811259 27.248925,35.620005 C27.248925,29.4689621 31.9321548,24.7139985 38.0148113,24.7139985 C45.4968944,24.7139985 48.3650263,30.6991706 48.3650263,33.4083941 C48.3650263,34.0580548 47.949355,34.6386027 47.2150024,34.6386027 C46.563784,34.6386027 45.4830387,34.0580548 44.4161491,34.0580548 C42.3655041,34.0580548 40.5504061,36.0208595 40.5504061,38.6471475 C40.5504061,42.1719025 43.5848065,44.4664489 48.9331104,46.1113345 C52.6325848,30.8650415 58.29957,23 67.0979455,23 C73.7486861,23 77.4481605,26.6076904 77.4481605,32.8416688 C77.4481605,41.2872581 68.982322,50.0507665 58.5489728,51.7785876 C57.5513617,55.28952 56.484472,58.6622267 55.3344482,61.7723046 Z M44,61.7575758 C42.0025575,60.4185606 39.8222506,59 37.4168798,59 C34.9130435,59 33,60.657197 33,62.6193182 C33,64.6609848 34.9130435,66 37.0933504,66 C40.2442455,66 42.4948849,64.0378788 44,61.7575758 Z M60,46 C65.0857143,44.8103638 70,39.3638368 70,35.5512679 C70,33.845645 69.0714286,33 67.8,33 C65.5857143,33 63.0571429,34.7056229 60,46 Z" id="Shape" fill="#2D2D2D" fill-rule="nonzero"></path>
    </g>
</svg>